<?xml version="1.0" encoding="utf-8"?>
<!-- Generator: Adobe Illustrator 21.0.0, SVG Export Plug-In . SVG Version: 6.00 Build 0)  -->
<svg version="1.1" id="Instagram" xmlns="http://www.w3.org/2000/svg" xmlns:xlink="http://www.w3.org/1999/xlink" x="0px" y="0px"
	 viewBox="0 0 144.1 144" style="enable-background:new 0 0 144.1 144;" xml:space="preserve">
<style type="text/css">
	.st0{fill:#FFFFFF;}
</style>
<path class="st0" d="M72,11.2c-33.5,0-60.8,27.3-60.8,60.8s27.3,60.8,60.8,60.8c33.5,0,60.8-27.3,60.8-60.8S105.6,11.2,72,11.2z
	 M72,126.8c-30.2,0-54.8-24.6-54.8-54.8S41.8,17.2,72,17.2s54.8,24.6,54.8,54.8S102.3,126.8,72,126.8z"/>
<path class="st0" d="M91.1,42.7H53c-5.6,0-10.2,4.6-10.2,10.2v38.2c0,5.6,4.6,10.2,10.2,10.2h38.1c5.6,0,10.2-4.6,10.2-10.2V52.9
	C101.3,47.3,96.7,42.7,91.1,42.7z M80.8,71.9c0,4.9-3.9,8.8-8.8,8.8s-8.8-3.9-8.8-8.8c0-2.4,1-4.6,2.5-6.2h12.5
	C79.9,67.3,80.8,69.5,80.8,71.9z M83.4,50.8h8.9V60h-8.9V50.8z M91.1,95.3H53c-2.3,0-4.2-1.9-4.2-4.2V65.7h9.8
	c-0.9,1.9-1.4,4-1.4,6.2c0,8.2,6.6,14.8,14.8,14.8s14.8-6.6,14.8-14.8c0-2.2-0.5-4.3-1.4-6.2h9.8v25.4
	C95.3,93.4,93.4,95.3,91.1,95.3z"/>
</svg>
