<?xml version="1.0" encoding="utf-8"?>
<!-- Generator: Adobe Illustrator 21.0.0, SVG Export Plug-In . SVG Version: 6.00 Build 0)  -->
<svg version="1.1" id="Layer_1" xmlns="http://www.w3.org/2000/svg" xmlns:xlink="http://www.w3.org/1999/xlink" x="0px" y="0px"
	 viewBox="0 0 515 515" style="enable-background:new 0 0 515 515;" xml:space="preserve">
<style type="text/css">
	.st0{fill:#FFFFFF;}
</style>
<title></title>
<g id="Layer_2">
	<g id="Layer_1-2">
		<path class="st0" d="M182.9,229.6L182.9,229.6L182.9,229.6z"/>
		<path class="st0" d="M184.2,247.7c0.7,3.3,1.8,6.5,3.2,9.5c2.1,4.5,5.3,8.4,9.2,11.4c4.4,3.3,9.4,5.5,14.8,6.6
			c1.5,0.3,3-0.4,3.8-1.7c1.2-2,2.1-4.2,2.8-6.4c0.6-1.8,0.9-3.8,0.9-5.7c0-2.2-0.5-4.5-1.3-6.5c-1.2-2.5-2.5-5-4-7.3
			c-1.3-2.1-2.2-4.4-2.7-6.8l0,0c-0.4-2.4-0.6-4.8-0.6-7.2c0-6.5,1.5-13,4.3-18.8c4.3-8.6,10.9-15.9,19.2-20.8
			c8.1-5.1,17.4-7.8,27-7.9c5.3,0,10.6,1,15.6,2.9c5.2,2.1,9.9,5.2,13.9,9.3c3.3,3.6,5.7,7.9,7.1,12.6c1.6,5.6,2.4,11.4,2.4,17.2
			c0,6-0.7,12-2.2,17.9c-2.1,8.7-5.8,16.7-10.6,22.3c-2.2,2.6-4.9,4.9-7.9,6.5c-2.8,1.5-6,2.3-9.3,2.3c-1.5,0-2.9-0.2-4.4-0.5
			c-1.7-0.3-3.3-0.9-4.8-1.7c-0.8-0.4-1.5-1-2.2-1.6c-0.8-0.9-1.5-2-1.8-3.2c-0.4-1.4-0.6-3-0.6-4.5c0.1-3.3,0.6-6.6,1.5-9.8
			c1.4-5.5,3.5-11.5,5.3-17.5c0.9-3,1.7-6,2.3-8.9c0.6-2.8,1-5.7,1-8.6c0-1.7-0.2-3.4-0.5-5c-0.5-2.5-1.7-4.8-3.3-6.8
			c-1.8-2.1-4.2-3.7-6.8-4.7c-2.5-1-5.3-1.6-8-1.6c-3.7,0-7.4,1.1-10.5,3.2c-4.5,3-7.9,7.7-10.1,13c-2.3,5.5-3.4,11.3-3.4,17.3
			c-0.1,5.7,1.2,11.3,3.7,16.3c-2.5,12.1-6.2,24.1-9.3,36.7c-3.2,13-5.8,26.8-5.8,42c0,6.1,0.4,12.3,1.3,18.4c0.3,1.9,2,3.2,4,3
			c0.6-0.1,1.1-0.3,1.6-0.6c4.6-3.4,8.6-7.6,11.9-12.3c4.9-7.1,8.4-15.3,11.1-24.1c2.2-7.4,4-15,5.5-22.6c2.4,1.6,4.6,3.3,7.2,4.8
			c2.1,1.2,4.3,2.2,6.5,3c2.6,0.9,5.4,1.4,8.2,1.6l0.3-3.5l-0.3,3.5c1.5,0.1,3,0.2,4.4,0.2c8.7,0.1,17.3-2.1,24.9-6.3
			c10.9-6.1,19.4-16,25.1-27.7c5.8-12.2,8.8-25.6,8.7-39.2c0-4.3-0.3-8.5-0.9-12.8l0,0c-1.1-8.2-3.9-16.1-8.3-23.1
			c-6.4-10.1-15.7-17.8-26.7-23c-11.6-5.3-24.2-7.9-37-7.8c-3.8,0-7.6,0.2-11.3,0.6c-16.5,2-31.9,9.2-43.9,20.6
			c-6.1,5.8-11.2,12.7-14.8,20.3c-3.8,8-6,16.7-6.3,25.6c0,1.2-0.1,2.4-0.1,3.6C182.8,238.1,183.2,243,184.2,247.7z"/>
		<path class="st0" d="M257.5,465.8c115.2,0.1,208.6-93.1,208.8-208.3S373.1,48.9,258,48.7S49.3,141.9,49.2,257
			c-0.1,55.4,21.9,108.5,61.1,147.7C149.3,443.9,202.3,465.8,257.5,465.8z M257.5,70.1C361.1,70,445.2,154,445.3,257.6
			c0.1,103.6-83.9,187.7-187.5,187.8c-103.6,0-187.7-83.9-187.8-187.5c0-49.8,19.7-97.6,55-132.9C160.1,89.8,207.8,70,257.5,70.1
			L257.5,70.1z"/>
	</g>
</g>
</svg>
